<mxfile host="app.diagrams.net" modified="2025-09-19" agent="AI" version="22.0.0">
  <diagram id="a2a-planning-flow" name="A2A Planning Flow">
    <mxGraphModel dx="970" dy="616" grid="1" gridSize="10" guides="1" tooltips="1" connect="1" arrows="1" fold="1" page="1" pageScale="1" pageWidth="1100" pageHeight="850" background="#ffffff">
      <root>
        <mxCell id="0"/>
        <mxCell id="1" parent="0"/>

        <mxCell id="user" value="User" style="shape=ellipse;whiteSpace=wrap;html=1;fillColor=#dae8fc;strokeColor=#6c8ebf;" vertex="1" parent="1">
          <mxGeometry x="60" y="120" width="120" height="60" as="geometry"/>
        </mxCell>

        <mxCell id="host" value="Host Agent (ADK + Gradio)" style="shape=process;whiteSpace=wrap;html=1;rounded=1;fillColor=#d5e8d4;strokeColor=#82b366;" vertex="1" parent="1">
          <mxGeometry x="260" y="110" width="200" height="80" as="geometry"/>
        </mxCell>

        <mxCell id="router" value="Routing Agent" style="shape=process;whiteSpace=wrap;html=1;rounded=1;fillColor=#fff2cc;strokeColor=#d6b656;" vertex="1" parent="1">
          <mxGeometry x="500" y="110" width="160" height="80" as="geometry"/>
        </mxCell>

        <mxCell id="planner" value="Study Planner Agent (A2A Server :10002)" style="shape=process;whiteSpace=wrap;html=1;rounded=1;fillColor=#f8cecc;strokeColor=#b85450;" vertex="1" parent="1">
          <mxGeometry x="720" y="40" width="260" height="80" as="geometry"/>
        </mxCell>

        <mxCell id="exercise" value="Exercise Generator Agent (A2A Server :10003)" style="shape=process;whiteSpace=wrap;html=1;rounded=1;fillColor=#f8cecc;strokeColor=#b85450;" vertex="1" parent="1">
          <mxGeometry x="720" y="190" width="260" height="80" as="geometry"/>
        </mxCell>

        <mxCell id="e1" edge="1" source="user" target="host" style="endArrow=block;strokeColor=#6c8ebf;">
          <mxGeometry relative="1" as="geometry"/>
        </mxCell>
        <mxCell id="e2" edge="1" source="host" target="router" style="endArrow=block;strokeColor=#82b366;">
          <mxGeometry relative="1" as="geometry"/>
        </mxCell>
        <mxCell id="e3" edge="1" source="router" target="planner" value="task (study planning)" style="endArrow=block;strokeColor=#d6b656;">
          <mxGeometry relative="1" as="geometry"/>
        </mxCell>
        <mxCell id="e4" edge="1" source="router" target="exercise" value="task (exercise gen)" style="endArrow=block;strokeColor=#d6b656;">
          <mxGeometry relative="1" as="geometry"/>
        </mxCell>
        <mxCell id="e5" edge="1" source="planner" target="host" value="result" style="endArrow=block;dashed=1;strokeColor=#b85450;">
          <mxGeometry relative="1" as="geometry"/>
        </mxCell>
        <mxCell id="e6" edge="1" source="exercise" target="host" value="result" style="endArrow=block;dashed=1;strokeColor=#b85450;">
          <mxGeometry relative="1" as="geometry"/>
        </mxCell>
      </root>
    </mxGraphModel>
  </diagram>
</mxfile>

